<?xml version="1.0" encoding="UTF-8"?>
<svg width="127px" height="174px" viewBox="0 0 127 174" version="1.1" xmlns="http://www.w3.org/2000/svg" xmlns:xlink="http://www.w3.org/1999/xlink">
    <!-- Generator: Sketch 41.2 (35397) - http://www.bohemiancoding.com/sketch -->
    <title>Mascot</title>
    <desc>Created with Sketch.</desc>
    <defs></defs>
    <g id="Scrap" stroke="none" stroke-width="1" fill="none" fill-rule="evenodd">
        <g id="v1" transform="translate(-63.000000, -62.000000)">
            <g id="Nav" transform="translate(0.000000, 62.000000)">
                <g id="Mascot" transform="translate(63.000000, 0.000000)">
                    <ellipse id="Oval" fill-opacity="0.0582540761" fill="#000000" cx="57" cy="168" rx="57" ry="6"></ellipse>
                    <g id="Gopher" transform="translate(0.000000, 31.000000)">
                        <g id="layer5" transform="translate(0.257443, 0.155116)">
                            <g id="g4537" transform="translate(101.631276, 100.561098) rotate(218.894320) translate(-101.631276, -100.561098) translate(95.631276, 97.561098)">
                                <path d="M11.135803,2.69276958 C10.9882199,3.47338912 10.7219253,4.00930966 10.358729,4.35597518 C9.9955313,4.70264071 9.53608813,4.86489536 9.01199461,4.95309258 C8.48790509,5.04128612 7.89959299,5.06324511 7.27784977,5.07497389 C6.6561092,5.08669715 6.00164426,5.07974799 5.34023936,5.04731365 C4.67883711,5.01487377 4.05461628,4.9251669 3.48715861,4.78104643 C2.91970228,4.63692596 2.40808715,4.44279732 1.9875378,4.19897387 C1.56698978,3.95515042 1.23888516,3.66005801 1.04773724,3.29747392 C0.856590637,2.93488431 0.803583073,2.50482515 0.922682373,1.99255757 C1.04177769,1.48029 1.27431166,1.13511753 1.59467657,0.939672787 C1.91504148,0.744226203 2.32237912,0.700328508 2.78637233,0.746650116 C3.25036687,0.792975409 3.76960347,0.92765645 4.32822278,1.04285587 C4.88684208,1.15805714 5.4860902,1.24586727 6.12928434,1.21934433 C6.77247848,1.19282507 7.43416901,0.997000614 8.06878916,0.816298421 C8.70340666,0.635601758 9.31179603,0.483547811 9.82310959,0.491496031 C10.3344271,0.499440565 10.7448256,0.66165651 10.9821846,1.01647117 C11.2195476,1.37128031 10.988734,3.47355686 11.1358004,2.69277511 L11.135803,2.69276958 Z" id="path4539" fill="#E1D6B9"></path>
                                <path d="M10.0500374,0.099672008 C9.56583007,0.0406133414 8.99895694,0.106178784 8.39697747,0.223748663 C7.70900435,0.358121876 6.97680092,0.552300283 6.23741042,0.585656264 C5.4980186,0.619019618 4.80842872,0.534414945 4.15959254,0.424584995 C3.51075104,0.314771635 2.90175323,0.191850716 2.35368602,0.175618799 C1.80562013,0.159379509 1.32038059,0.251692776 0.936665922,0.501958484 C0.552956569,0.752224192 0.271602391,1.15652353 0.124454954,1.71952921 C-0.022689826,2.28253673 0.0336655009,2.78776482 0.252816396,3.23010944 C0.471969949,3.67245775 0.852748681,4.05267649 1.34175711,4.37501625 C1.83076953,4.69735787 2.42617038,4.96363061 3.08489974,5.16442639 C3.74363042,5.36522401 4.46668862,5.49558441 5.23136402,5.54369215 C5.99603543,5.5918128 6.72485125,5.59893892 7.4018724,5.58411342 C8.07888824,5.56929346 8.70360194,5.53780841 9.25378143,5.42279516 C9.46312152,5.37903386 9.6613489,5.32090052 9.8477276,5.24560257 C10.2240984,5.09334217 10.3267937,4.20049458 9.98946813,4.44309593 C9.67693991,4.66785987 9.30794743,4.79116972 8.89550311,4.86324194 C8.39287115,4.95107788 7.82815812,4.97479535 7.2309532,4.98789001 C6.63375226,5.00097729 6.00479142,4.99531843 5.36926791,4.96551813 C4.73374174,4.93570862 4.13410172,4.85122376 3.58919495,4.7143271 C3.04428553,4.5774249 2.55314357,4.39241128 2.14961732,4.15945765 C1.74609506,3.92650402 1.43145854,3.64399199 1.2483479,3.2968767 C1.06523726,2.94975773 1.01468871,2.53815348 1.12955947,2.0469638 C1.2444289,1.55577597 1.4681564,1.22403179 1.77561648,1.03525787 C2.08307523,0.846487649 2.47341236,0.802083052 2.91820243,0.843695081 C3.36299117,0.885308952 3.86095487,1.0111828 4.39720262,1.11921556 C4.93344639,1.22726859 5.50928807,1.31023827 6.12804753,1.28488396 C6.74680699,1.25952782 7.38396719,1.07307459 7.99394011,0.898943689 C8.60391302,0.724812786 9.18721809,0.575733892 9.67679511,0.57896516 C9.73799273,0.579333816 9.79787782,0.58193284 9.85590039,0.587001858 C10.0049954,0.600052275 10.1441533,0.624805672 10.2678173,0.674998165 C10.4104293,0.732877133 10.6603305,0.194879224 10.2521971,0.13241602 C10.1859605,0.122277984 10.0463602,0.169045665 10.0500374,0.0996683214 L10.0500374,0.099672008 Z" id="path4541" fill="#394655"></path>
                            </g>
                            <g id="g4640" transform="translate(79.536848, 123.728071) rotate(-15.000000) translate(-79.536848, -123.728071) translate(72.036848, 106.228071)">
                                <path d="M5.20925985,21.9639036 C6.57914675,24.1975542 9.12279402,25.1325185 10.7180672,26.3229427 C12.3133392,27.5133724 12.9531485,28.9474706 13.4433534,30.0728752 C13.933557,31.1982826 14.1754063,32.0763285 14.0243955,32.7444425 C13.8733859,33.4125538 13.3416984,33.8644295 12.3001139,34.0936987 C11.2585331,34.3229679 10.3407846,34.1275026 9.46470232,33.6097829 C8.58861879,33.0920604 7.76434306,32.2451516 6.79160453,31.1973824 C5.81886476,30.1496189 4.65771643,28.9398546 3.61289673,27.2198829 C2.56807703,25.4999112 1.44255057,23.3221218 0.762854649,20.4524981 C0.0831574979,17.5828773 0.0507856303,14.4673278 0.101345891,11.7925778 C0.151906153,9.11782495 0.287419475,6.87025737 0.435793614,5.13294208 C0.584170216,3.39562959 0.77016375,2.13970077 1.02335668,1.2998192 C1.27654715,0.459943228 1.59621903,0.0304613577 1.9739992,0.0304613577 C2.35178059,0.0304613577 2.67640813,0.543876705 2.91308016,1.57253009 C3.14975464,2.60117786 3.2884219,4.1647992 3.31780732,6.27227762 C3.34719274,8.37975884 3.23513997,11.0619483 3.35971488,13.8990607 C3.4842898,16.736176 3.83937542,19.7302502 5.20925985,21.9639036 L5.20925985,21.9639036 Z" id="path4642" fill="#394655"></path>
                                <path d="M4.4109964,22.0446319 C5.43975208,24.0718363 7.29328104,25.2258291 8.95880784,26.2100312 C10.6243322,27.1942446 11.6389943,28.3159337 12.2117569,29.3772806 C12.784522,30.4386246 13.0791779,31.3293424 13.0606336,31.9796474 C13.042088,32.6299496 12.6823066,33.0597623 11.8298314,33.2519832 C10.9773587,33.4442041 10.2134819,33.2016293 9.46671217,32.6467351 C8.71994616,32.0918354 7.98730944,31.2261501 7.05005853,30.2217665 C6.11281008,29.2173802 4.96328243,28.0856102 3.97255377,26.5159992 C2.98182635,24.9463854 2.02392892,22.9676534 1.39839547,20.558374 C0.77286079,18.1490974 0.657822803,15.5667268 0.660480434,13.2904084 C0.663140528,11.0140928 0.775581229,9.04252822 0.890326113,7.49438292 C1.005071,5.94624042 1.13873211,4.80321464 1.30690055,4.0439885 C1.47507022,3.28475956 1.68062653,2.9028527 1.92510026,2.91841287 C2.16957153,2.93397584 2.36558229,3.43634849 2.49337149,4.39762403 C2.62116069,5.35890237 2.67162858,6.79360344 2.67486134,8.64670162 C2.67808793,10.4998026 2.62112005,12.78577 2.78732051,15.1732585 C2.95351974,17.5607526 3.38223825,20.0174248 4.4109964,22.0446319 L4.4109964,22.0446319 Z" id="path4644" fill="#E1D6B9"></path>
                            </g>
                            <g id="g4640-copy" transform="translate(14.536848, 109.728071) rotate(334.000000) translate(-14.536848, -109.728071) translate(7.036848, 92.228071)">
                                <path d="M5.20925985,21.9639036 C6.57914675,24.1975542 9.12279402,25.1325185 10.7180672,26.3229427 C12.3133392,27.5133724 12.9531485,28.9474706 13.4433534,30.0728752 C13.933557,31.1982826 14.1754063,32.0763285 14.0243955,32.7444425 C13.8733859,33.4125538 13.3416984,33.8644295 12.3001139,34.0936987 C11.2585331,34.3229679 10.3407846,34.1275026 9.46470232,33.6097829 C8.58861879,33.0920604 7.76434306,32.2451516 6.79160453,31.1973824 C5.81886476,30.1496189 4.65771643,28.9398546 3.61289673,27.2198829 C2.56807703,25.4999112 1.44255057,23.3221218 0.762854649,20.4524981 C0.0831574979,17.5828773 0.0507856303,14.4673278 0.101345891,11.7925778 C0.151906153,9.11782495 0.287419475,6.87025737 0.435793614,5.13294208 C0.584170216,3.39562959 0.77016375,2.13970077 1.02335668,1.2998192 C1.27654715,0.459943228 1.59621903,0.0304613577 1.9739992,0.0304613577 C2.35178059,0.0304613577 2.67640813,0.543876705 2.91308016,1.57253009 C3.14975464,2.60117786 3.2884219,4.1647992 3.31780732,6.27227762 C3.34719274,8.37975884 3.23513997,11.0619483 3.35971488,13.8990607 C3.4842898,16.736176 3.83937542,19.7302502 5.20925985,21.9639036 L5.20925985,21.9639036 Z" id="path4642" fill="#394655"></path>
                                <path d="M4.4109964,22.0446319 C5.43975208,24.0718363 7.29328104,25.2258291 8.95880784,26.2100312 C10.6243322,27.1942446 11.6389943,28.3159337 12.2117569,29.3772806 C12.784522,30.4386246 13.0791779,31.3293424 13.0606336,31.9796474 C13.042088,32.6299496 12.6823066,33.0597623 11.8298314,33.2519832 C10.9773587,33.4442041 10.2134819,33.2016293 9.46671217,32.6467351 C8.71994616,32.0918354 7.98730944,31.2261501 7.05005853,30.2217665 C6.11281008,29.2173802 4.96328243,28.0856102 3.97255377,26.5159992 C2.98182635,24.9463854 2.02392892,22.9676534 1.39839547,20.558374 C0.77286079,18.1490974 0.657822803,15.5667268 0.660480434,13.2904084 C0.663140528,11.0140928 0.775581229,9.04252822 0.890326113,7.49438292 C1.005071,5.94624042 1.13873211,4.80321464 1.30690055,4.0439885 C1.47507022,3.28475956 1.68062653,2.9028527 1.92510026,2.91841287 C2.16957153,2.93397584 2.36558229,3.43634849 2.49337149,4.39762403 C2.62116069,5.35890237 2.67162858,6.79360344 2.67486134,8.64670162 C2.67808793,10.4998026 2.62112005,12.78577 2.78732051,15.1732585 C2.95351974,17.5607526 3.38223825,20.0174248 4.4109964,22.0446319 L4.4109964,22.0446319 Z" id="path4644" fill="#E1D6B9"></path>
                            </g>
                            <g id="g4594" transform="translate(31.722871, 95.741186) rotate(245.262524) translate(-31.722871, -95.741186) translate(25.722871, 79.241186)">
                                <path d="M4.0992403,20.6918501 C5.17768874,22.7959388 7.18018429,23.676671 8.43606892,24.7980451 C9.69195259,25.9194245 10.1956448,27.2703385 10.5815603,28.3304645 C10.9674749,29.3905932 11.1578717,30.2177084 11.0389879,30.8470688 C10.920105,31.4764266 10.5015321,31.9020915 9.68154089,32.118062 C8.86155263,32.3340326 8.13905181,32.1499051 7.44935284,31.6622155 C6.7596529,31.1745233 6.11073884,30.3767391 5.34494689,29.3897453 C4.57915398,28.4027567 3.66503574,27.2631642 2.84249764,25.6429587 C2.01995953,24.0227532 1.13388474,21.9712854 0.598791657,19.268113 C0.0636976062,16.5649431 0.0382127359,13.6301097 0.0780164851,11.1105073 C0.117820234,8.59090223 0.22450359,6.47370377 0.341311669,4.83716065 C0.458121688,3.20062016 0.604545773,2.01754091 0.803872828,1.22637628 C1.00319794,0.435216923 1.2548608,0.0306469495 1.5522696,0.0306469495 C1.84967938,0.0306469495 2.10524359,0.514281878 2.2915645,1.4832687 C2.47788734,2.45225024 2.58705365,3.92517445 2.61018742,5.91040956 C2.6333212,7.89564731 2.54510725,10.4222576 2.64317931,13.0948047 C2.74125136,15.7673544 3.02079381,18.5877587 4.0992403,20.6918501 L4.0992403,20.6918501 Z" id="path4588" fill="#394655"></path>
                                <path d="M3.4708045,20.7678958 C4.28069615,22.6775131 5.73989355,23.764569 7.05108557,24.691683 C8.36227565,25.6188076 9.16107209,26.6754336 9.61198152,27.6752175 C10.0628929,28.6749988 10.2948618,29.5140509 10.2802628,30.1266353 C10.2656627,30.739217 9.98242349,31.1440986 9.3113093,31.3251699 C8.64019705,31.5062411 8.03883226,31.2777367 7.4509351,30.7550289 C6.86304085,30.2323158 6.28626993,29.4168443 5.54841575,28.4707195 C4.8105635,27.5245921 3.90559368,26.4584699 3.12563895,24.9799035 C2.34568518,23.5013344 1.59157695,21.6373778 1.09912348,19.3678475 C0.606669028,17.0983199 0.516104955,14.6657386 0.518197185,12.521457 C0.520291353,10.377178 0.608810703,8.51997306 0.69914403,7.06162721 C0.789477357,5.603284 0.89470255,4.52655889 1.02709377,3.81137131 C1.15948595,3.09618109 1.3213109,2.73642657 1.51377374,2.75108417 C1.70623463,2.76574442 1.86054481,3.23897718 1.96114732,4.14449438 C2.06174983,5.05001422 2.10148087,6.40149612 2.10402587,8.1471062 C2.10656602,9.89271892 2.06171784,12.0460899 2.19255976,14.2950932 C2.32340071,16.5441018 2.66091091,18.8582759 3.4708045,20.7678958 L3.4708045,20.7678958 Z" id="ellipse4590" fill="#E1D6B9"></path>
                            </g>
                            <g id="g4404" transform="translate(72.329853, 12.435501) scale(-1, 1) rotate(-315.000000) translate(-72.329853, -12.435501) translate(62.329853, 4.935501)">
                                <path d="M18.2654931,7.28720905 C18.5114205,8.41240615 18.3035722,9.54799654 17.8385373,10.5422634 C17.373489,11.5365292 16.6736613,12.3923354 15.8822021,13.059259 C15.0907241,13.7261981 14.1981272,14.2096179 13.169579,14.4693592 C12.1410153,14.7290994 10.856806,14.9322991 9.67673504,14.6748614 C8.49666185,14.4174248 7.68199948,13.7189785 7.01683628,13.0286674 C6.35168744,12.3383616 5.6524183,11.5293106 4.48154226,10.7428414 C3.31069272,9.95638764 2.17813757,9.12714779 1.70382596,8.32138142 C1.22952648,7.51559433 0.930166011,6.69833878 0.841057121,5.89852831 C0.751948231,5.09872923 0.880698361,4.39047278 1.18581271,3.77050032 C1.49094141,3.15051956 1.972452,2.61859905 2.59727845,2.17442183 C3.22212146,1.73025601 3.99020969,1.37311462 4.87609117,1.11347383 C5.7619859,0.853847536 6.76526764,0.691328239 7.87219198,0.656160489 C8.97911743,0.62099481 10.0874162,0.717675049 11.1577717,0.953959407 C12.228115,1.19025827 13.2613926,1.56719602 14.1911843,2.09573979 C15.1209618,2.62429807 15.9457265,3.30681883 16.576266,4.12889607 C17.2067934,4.95098988 18.0195702,6.16202749 18.2654931,7.28720905 L18.2654931,7.28720905 Z" id="path4406" fill="#65C3CF"></path>
                                <path d="M6.95379195,0.107515147 C6.09540799,0.201631951 5.30019177,0.367053712 4.57439737,0.589792032 C3.60663583,0.886762113 2.76398646,1.28585466 2.07444738,1.77609418 C1.38492358,2.26633369 0.848341862,2.84723236 0.502853635,3.52487335 C0.157350117,4.20254303 0.00330707895,4.9756351 0.0831268782,5.84960145 C0.162946677,6.72358215 0.469717714,7.61961429 0.96952422,8.50292058 C1.46934602,9.38622688 2.48269048,10.2994325 3.77592414,11.1450203 C5.0691578,11.9905938 5.85048965,12.8742588 6.5672164,13.6250124 C7.28151186,14.3731693 8.30201258,14.8498365 9.66251201,14.9546132 C9.81929216,14.9660908 9.85102129,14.5174435 9.71511356,14.4829388 C8.52113475,14.1922384 7.79108941,13.4496195 7.08691669,12.8893232 C6.4364312,12.2201039 5.75305445,11.4344438 4.60816023,10.6712082 C3.46329659,9.90798691 2.35594214,9.10301564 1.89109121,8.31992366 C1.42627085,7.53680298 1.13135045,6.74161642 1.04290645,5.96357461 C0.954370691,5.18551845 1.08036976,4.49701672 1.37805786,3.89297622 C1.67576124,3.28892137 2.14564297,2.7685817 2.7568302,2.33455402 C3.36806331,1.90052635 4.11869054,1.55139031 4.98582104,1.29625629 C5.41940157,1.16871081 5.88371732,1.06499581 6.37306468,0.988296354 C6.86241204,0.911539509 7.37861066,0.861324751 7.92019258,0.842487043 C9.00340231,0.805902005 10.0858781,0.898727572 11.1319915,1.1275634 C12.1780896,1.35635619 13.1886357,1.7232826 14.0959972,2.23700827 C15.0033435,2.75071959 15.8068475,3.41326746 16.4219034,4.21192602 C17.036944,5.01058458 17.8304782,6.18497865 18.0722007,7.27756571 C18.2706951,8.17481735 18.1844377,9.08305886 17.8690119,9.90851775 C17.810141,10.0622036 18.6300524,10.3305513 18.8290973,9.8925925 C19.200137,9.07509623 19.1875983,8.11273757 18.9859845,7.2038074 C18.7132821,5.97475098 17.9304211,4.6652792 17.2478242,3.76023709 C16.5652273,2.85522368 15.670955,2.10613426 14.6652256,1.53248086 C13.6594961,0.958827464 12.5447407,0.556836804 11.3887757,0.312678302 C10.2327801,0.0685484942 9.03338825,-0.0196860097 7.8336141,0.0380466153 C7.53364762,0.0525371598 7.24008814,0.0764967731 6.95394486,0.107486452 L6.95379195,0.107515147 Z" id="path4408" fill="#394655"></path>
                                <path d="M4.22026091,8.39231251 C4.20517742,8.12108932 4.46094555,7.87979061 5.01724768,7.75005567 C5.86227135,7.55298596 7.22941061,7.94123059 8.10152232,8.3375162 C8.57993407,8.55491467 9.08292785,8.7405242 9.49984533,9.08268781 C9.64135732,9.19883605 9.77782307,9.31921351 9.87172208,9.5393434 C9.68863028,9.59910952 9.41855253,9.44391028 9.22338665,9.31866867 C8.45417459,8.82507409 7.6011052,8.48071768 6.71992662,8.37334272 C5.97851244,8.28303374 5.74079305,8.05118368 5.09097831,8.10799463 C4.67965904,8.14395374 4.54934349,8.32953116 4.22026202,8.39231251 L4.22026091,8.39231251 Z" id="path4365-1-2" fill="#394655"></path>
                                <path d="M7.9298058,8.25368309 C7.96130418,8.01285567 8.02580897,8.65803867 7.89460472,8.81922903 C7.40222779,9.42414085 6.98903288,10.095419 6.5233863,10.7215099 C6.37171782,10.9253435 6.15967008,10.7257982 6.2554116,10.5041208 C6.35269095,10.2789465 6.48288728,10.0899033 6.62514665,9.90176741 C6.75851578,9.7255278 6.93575102,9.58505879 7.05440648,9.39840827 C7.282507,9.03974217 7.31889154,8.71179917 7.52408144,8.33781348 C7.59441737,8.20956181 7.91295375,8.38188296 7.92966339,8.25401144 L7.9298058,8.25368309 Z" id="path4367-9-2" fill="#394655"></path>
                            </g>
                            <g id="g4198" transform="translate(12.625043, 10.473173)">
                                <path d="M93.3105964,73.8152888 C91.4016656,89.5820239 88.0308366,104.892718 76.1198833,115.348056 C61.093558,128.538039 33.4713889,130.281141 13.9322443,117.766206 C8.28161569,114.146946 3.78214075,104.09305 3.06128757,97.5915583 C1.55450724,84.0016902 7.12484636,74.7981927 5.82387769,62.2571351 C4.78836548,52.2750262 -0.250423316,44.0146601 0.22700563,32.1294061 C0.547374578,24.1540367 2.49486076,14.8744421 8.52900574,9.94428248 C16.4341718,3.4854203 25.6640029,-0.213047519 36.1319832,0.0415681504 C51.039558,0.404169309 67.1161233,1.43281813 79.6199215,11.0236448 C88.5443021,17.8689389 93.6597179,29.1742069 94.5616288,40.7773143 C95.4880456,52.6956754 94.5286829,63.7545451 93.3105964,73.8152888 L93.3105964,73.8152888 Z" id="path4188" fill="#394655"></path>
                                <path d="M89.5764756,88.3876562 C86.3872044,102.887678 77.6026557,116.402351 62.0265558,121.752311 C47.5540282,126.723226 28.5186549,125.556611 14.440088,116.134179 C9.08139546,112.547743 4.99357049,102.618108 4.40589642,96.4577181 C3.16892161,83.4909182 8.30967961,73.9887524 7.13234346,62.0211868 C6.14958356,52.031502 1.38936808,44.7922907 1.53801074,32.944287 C1.6351554,25.2010724 3.38060921,16.0206499 9.28948208,11.2173663 C16.7752428,5.13224102 25.3479154,1.26904523 35.206792,1.31875174 C50.8284012,1.39751297 68.4420508,2.53554392 80.8788076,13.7785208 C92.2492337,24.0575233 93.8692453,42.1572273 93.3419088,56.2878563 C92.9069682,67.9425805 91.7694396,78.4173388 89.5764756,88.3876562 L89.5764756,88.3876562 Z" id="ellipse4190" fill="#65C3CF"></path>
                            </g>
                            <g id="g4376" transform="translate(16.037587, 20.057789) rotate(-18.858945) translate(-16.037587, -20.057789) translate(5.037587, 9.557789)">
                                <path d="M20.8355685,11.2072789 C21.1185667,12.6415919 20.8818392,14.0364971 20.3515901,15.2557642 C19.8213259,16.4750302 19.0229518,17.518346 18.1200759,18.3319616 C17.2171786,19.1455962 16.1989514,19.7359384 15.0255727,20.0518756 C13.8521777,20.3678102 12.3872346,20.6169438 11.0402434,20.2828596 C9.6932509,19.9487754 8.76176826,19.042961 7.99907858,18.103007 C7.23640401,17.1630592 6.43207557,16.0095757 5.09034099,14.8984935 C3.74863664,13.7874341 2.45167289,12.6507141 1.90402803,11.5026983 C1.35639702,10.3546485 1.00793134,9.18255411 0.899045661,8.02497137 C0.790161237,6.8674038 0.930172408,5.83078653 1.27203517,4.91844799 C1.6139143,4.00609681 2.15768281,3.21823918 2.86647999,2.57605618 C3.57529481,1.93388709 4.44909423,1.43743811 5.45982439,1.12421781 C6.47056967,0.811015201 7.61781245,0.681266188 8.88648179,0.787196902 C10.1551524,0.893130143 11.4280167,1.22597473 12.6585949,1.75424588 C13.8891593,2.2825322 15.0783935,3.00633353 16.1485524,3.88945551 C17.2186961,4.77259392 18.1679183,5.81524758 18.8934476,6.97469798 C19.6189618,8.13416733 20.5525753,9.77298611 20.8355685,11.2072789 L20.8355685,11.2072789 Z" id="path4398" fill="#65C3CF"></path>
                                <path d="M7.83489687,0.0197927717 C6.85213389,0.0455218291 5.94334981,0.206477211 5.11538259,0.478207562 C4.01138559,0.840497194 3.05299151,1.40006044 2.27102344,2.11443559 C1.48905537,2.82881075 0.883234202,3.6960025 0.496018014,4.69644276 C0.108784382,5.69690053 -0.059460511,6.82813893 0.0392536258,8.08702495 C0.137985206,9.34592847 0.495128383,10.6198494 1.07185339,11.8623703 C1.64859583,13.1048913 2.80961642,14.3452769 4.29011915,15.5079152 C5.77060443,16.670536 6.66813729,17.9045856 7.48898747,18.9017179 C8.30706409,19.8954196 9.47195719,20.4953442 11.0243979,20.633826 C11.2033009,20.6495785 11.2388513,20.0856221 11.0837066,20.0405 C9.72060029,19.659885 8.88495782,18.6825833 8.07827196,17.9141071 C7.332238,16.9976626 6.54604854,15.8728477 5.23393026,14.789777 C3.92186431,13.7067237 2.65358215,12.5982038 2.11678587,11.4789198 C1.58000704,10.3596008 1.23666186,9.21604049 1.12863277,8.08723498 C1.02048156,6.95844698 1.15741494,5.94855522 1.49097418,5.05852236 C1.82449853,4.16847201 2.35511972,3.39779047 3.04847358,2.7708066 C3.74186233,2.14382272 4.59585562,1.65966137 5.58524723,1.35318804 C6.07995175,1.20003889 6.61036362,1.09169681 7.17002864,1.03428775 C7.72969367,0.976878701 8.32072254,0.96970257 8.94147554,1.02028555 C10.1830164,1.12267669 11.4262668,1.44705535 12.6290129,1.96182902 C13.8317589,2.47662021 14.9948727,3.1836442 16.0392993,4.04509505 C17.0837085,4.9065459 18.0085932,5.92263363 18.7164602,7.053697 C19.4243273,8.18477786 20.3361117,9.78220227 20.6144789,11.1807603 C20.8430617,12.3292739 20.745307,13.4548414 20.3859136,14.4717343 C20.3189296,14.6610617 21.2547515,15.0031531 21.4817992,14.4682337 C21.9050193,13.4696663 21.8904886,12.2899802 21.6591323,11.14712 C21.3462264,9.60174882 20.4479086,7.8723536 19.6632891,6.61896344 C18.8786521,5.36560829 17.8501342,4.24172106 16.6930559,3.29597692 C15.5359602,2.35023277 14.2531997,1.58126651 12.9243005,1.02676157 C11.5953665,0.472291629 10.2178342,0.131092823 8.84274396,0.0401484818 C8.49894525,0.0173948936 8.16268223,0.0116189828 7.83507131,0.01984528 L7.83489687,0.0197927717 Z" id="path4369" fill="#394655"></path>
                                <path d="M7.77586167,8.83378896 C8.0034058,8.48451329 8.57091732,8.37508736 9.44400016,8.62944617 C10.7702091,9.01581717 12.2693028,10.5220652 13.0896858,11.6681261 C13.5397088,12.2968286 14.0521516,12.9042995 14.3046969,13.6424949 C14.3904037,13.8930666 14.4654071,14.145137 14.3914654,14.4896816 C14.0885098,14.4272377 13.8641519,14.0318494 13.7139813,13.7298199 C13.1221223,12.5394483 12.2800881,11.472342 11.1832191,10.6795397 C10.2602977,10.0125262 10.1499172,9.54581698 9.21670035,9.13064642 C8.62598608,8.86785156 8.27956311,9.00165938 7.77586167,8.83378896 L7.77586167,8.83378896 Z" id="path4365-1" fill="#394655"></path>
                                <path d="M12.9334677,11.435234 C13.196389,11.1586743 12.6939217,12.0109345 12.3685958,12.1136872 C11.1477072,12.4992949 9.97353393,13.0268218 8.76953609,13.4588139 C8.37745822,13.5994024 8.27234059,13.1921536 8.60488774,12.9874999 C8.94271672,12.7796417 9.2921433,12.6414251 9.65710554,12.5133617 C9.99912446,12.3934754 10.3679328,12.3509717 10.6995304,12.2071066 C11.3368404,11.9307264 11.6860541,11.5492583 12.3062945,11.2366534 C12.5189603,11.1294287 12.7933784,11.5823947 12.9329639,11.4355373 L12.9334677,11.435234 Z" id="path4367-9" fill="#394655"></path>
                            </g>
                            <g id="g4634" transform="translate(41.137029, 135.891872) rotate(-73.030576) translate(-41.137029, -135.891872) translate(35.137029, 132.391872)">
                                <path d="M11.226219,2.55002668 C11.2256877,3.36115802 11.0670183,3.94881019 10.7778261,4.36168262 C10.4886339,4.77455321 10.0695432,5.01633431 9.56277573,5.18063685 C9.05600821,5.34493754 8.46246988,5.4378167 7.82821638,5.51948318 C7.19396421,5.60114783 6.51944988,5.66524233 5.84214177,5.72211118 C5.16483366,5.77897819 4.52091682,5.78614855 3.92884645,5.73800025 C3.33677609,5.68985011 2.79651368,5.59070749 2.33564238,5.42245112 C1.87477375,5.2541929 1.49373861,5.0144302 1.22554034,4.66801905 C0.957340739,4.32160236 0.802142729,3.8671603 0.793166209,3.28356334 C0.784185704,2.69996823 0.925788079,2.27235878 1.18179093,1.97782119 C1.43779246,1.6832836 1.80783311,1.52364825 2.25782684,1.45306171 C2.70782056,1.38247702 3.2372891,1.40083055 3.82150285,1.42347524 C4.4057166,1.44611808 5.04509802,1.46671119 5.72543107,1.40098354 C6.40576413,1.33525405 7.09000423,1.12937819 7.7394316,0.932608129 C8.38886029,0.735839914 9.0020096,0.554461236 9.52466969,0.513973607 C10.0473324,0.473482292 10.4781894,0.573552079 10.773203,0.891104854 C11.0682166,1.20865763 11.2267783,1.73889534 11.226219,2.55003037 L11.226219,2.55002668 Z" id="path4636" fill="#E1D6B9"></path>
                                <path d="M9.68661238,0.100975833 C9.18841885,0.0959805467 8.61227161,0.200466831 7.99124709,0.338226148 C7.28150686,0.495666158 6.51569959,0.692244516 5.73153941,0.767004236 C4.94737923,0.841771328 4.21561019,0.837649756 3.54655724,0.843327056 C2.87750428,0.849022789 2.2706214,0.872948553 1.7520756,1.00173479 C1.23353113,1.13051918 0.804203197,1.36438708 0.502217766,1.73328624 C0.200233664,2.10218356 0.0259122258,2.60271682 0.0170114292,3.24031079 C0.00811063255,3.87790293 0.178847839,4.40292231 0.487686884,4.82185913 C0.796525928,5.24079595 1.24331005,5.55539211 1.78450904,5.78958073 C2.32571069,6.0237712 2.96052613,6.18016055 3.65190149,6.26840017 C4.34327684,6.35663979 5.09114835,6.3718708 5.87087407,6.30944262 C6.65059847,6.24701444 7.39483128,6.16446318 8.07687275,6.06067181 C8.75891157,5.9568786 9.37789555,5.83511895 9.89782031,5.62865324 C10.0956478,5.55009268 10.2786641,5.4574679 10.4460762,5.34856143 C10.7841829,5.12861213 10.7184339,4.21079916 10.4328445,4.51152464 C10.1682491,4.79014182 9.88237145,4.82149416 9.48200698,4.9448077 C8.99409852,5.09508473 8.39513203,5.12749695 7.81475758,5.19232324 C7.23438578,5.25714584 6.64850081,5.52122139 6.04611349,5.57523869 C5.44372352,5.62925415 4.86803726,5.6357001 4.32815213,5.58817851 C3.78826435,5.54064956 3.28443276,5.44426449 2.85025456,5.28533511 C2.41607769,5.12640573 2.05357348,4.90186482 1.8028035,4.58231025 C1.55203352,4.26275014 1.41417479,3.84737638 1.40709666,3.32872184 C1.40001588,2.81007099 1.52689342,2.44040871 1.76164196,2.20328558 C1.99638918,1.96616429 2.50789007,2.09549982 2.91634895,2.07167728 C3.32480651,2.0478529 3.83382713,1.97124806 4.34947286,1.99475171 C4.86511727,2.01826089 5.21908335,1.90605496 5.81723283,1.77099604 C6.4153823,1.63595003 7.03307102,1.33904199 7.66213681,1.08510999 C8.29120128,0.831178003 8.88760514,0.653305242 9.39030087,0.614364125 C9.45313784,0.609497868 9.51478848,0.606585486 9.57478383,0.606087801 C9.72894829,0.604797506 9.87370048,0.614235095 10.0065389,0.649650019 C10.1597296,0.690489714 10.3141385,0.122203037 9.89522712,0.109987626 C9.82723965,0.107996884 9.75778421,0.101692869 9.68661371,0.100992423 L9.68661238,0.100975833 Z" id="path4638" fill="#394655"></path>
                            </g>
                        </g>
                        <g id="layer2" transform="translate(31.245566, 17.328033)">
                            <g id="g4818" transform="translate(23.156936, 28.022532) scale(-1, 1) translate(-23.156936, -28.022532) translate(0.656936, 6.022532)">
                                <path d="M44.4987067,20.9467648 C44.4129031,23.8341347 43.6944195,26.6204206 42.4747527,29.2056195 C41.2550839,31.7908184 39.5347677,34.1756457 37.4478899,36.2416934 C35.3610121,38.3077431 32.9081045,40.0548392 30.2170874,41.341304 C27.5260704,42.6277689 24.5967782,43.4528244 21.5479132,43.6598535 C18.4990461,43.8668826 15.6179486,43.4334207 13.0120085,42.4543204 C10.4060684,41.475222 8.07556615,39.950921 6.13524169,37.9969384 C4.19491722,36.0429558 2.64512699,33.65953 1.60295821,30.9782374 C0.560787485,28.2969447 0.0266979508,25.3177831 0.114272294,22.1860819 C0.201846638,19.0543806 0.902153075,16.0693043 2.09001805,13.3747885 C3.27788303,10.6802727 4.95284682,8.27675722 6.99315077,6.28777491 C9.03345473,4.29879456 11.4390657,2.72439044 14.0960485,1.66286702 C16.7530333,0.601343596 19.6620287,0.0516903345 22.7120997,0.0941919277 C25.7621725,0.136695476 28.6655089,0.764072862 31.3049418,1.84193703 C33.9443746,2.91980121 36.3192864,4.44887734 38.3034243,6.3209744 C40.2875642,8.19307341 41.8804881,10.4087915 42.9548405,12.8754183 C44.0291949,15.3420431 44.5845083,18.059393 44.4987067,20.9467648 L44.4987067,20.9467648 Z" id="path4812" fill="#394655"></path>
                                <path d="M42.9977247,20.2871653 C42.9979195,23.0040773 42.410249,25.669856 41.3392648,28.1746216 C40.2682805,30.6793873 38.7132092,33.0231789 36.7854009,35.0652394 C34.8575926,37.1072978 32.5571331,38.8457643 30.0090675,40.1235662 C27.4610037,41.4013641 24.6664384,42.217442 21.7537806,42.4235271 C18.8411228,42.629614 16.0867183,42.2060582 13.599453,41.2642171 C11.1121839,40.3223721 8.89125722,38.8625272 7.04125968,37.0049179 C5.19125825,35.1473067 3.71209243,32.8917825 2.71028713,30.3680217 C1.70848379,27.8442628 1.18432928,25.0522713 1.24470892,22.1319795 C1.30508856,19.2116877 1.94404718,16.4423641 3.04270535,13.9501843 C4.14136548,11.4580046 5.69933749,9.2430938 7.60042445,7.40780839 C9.5015153,5.57252103 11.7454639,4.11651112 14.2244753,3.11898051 C16.7034848,2.12144795 19.4180927,1.58104989 22.2670435,1.56638035 C25.1159944,1.55170103 27.8305381,2.06134095 30.3048371,2.98237886 C32.7791362,3.90341677 35.012694,5.23683584 36.892257,6.89877636 C38.7718219,8.56071884 40.2972129,10.5518669 41.3535069,12.8042011 C42.409799,15.0565354 42.9974403,17.5702513 42.9977247,20.2871653 Z" id="ellipse4814" fill="#FFFFFF"></path>
                                <ellipse id="path4828" fill="#394455" cx="27.0923188" cy="20.5499249" rx="6.00185752" ry="6.0221638"></ellipse>
                                <ellipse id="circle4830" fill="#FFFFFF" cx="24.4357607" cy="17.7856502" rx="2.95173304" ry="2.96171973"></ellipse>
                            </g>
                            <g id="g4822" transform="translate(70.904708, 25.356928) rotate(-240.000000) translate(-70.904708, -25.356928) translate(52.904708, 7.356928)">
                                <path d="M34.1374181,15.5137496 C33.1472094,17.5725969 31.6094141,19.5559298 29.8301849,21.5077901 C28.0509523,23.4596504 26.0476621,25.3929276 24.0883399,27.2180046 C22.1290161,29.0430816 20.2172425,30.7482272 18.3942898,32.1078548 C16.571337,33.467484 14.8230901,34.474281 13.0651988,34.9367184 C11.3073074,35.3991575 9.68953915,35.2747421 8.19157899,34.6568473 C6.69361716,34.0389525 4.76874489,33.360961 3.59048524,31.8671159 C2.41222726,30.3732707 1.45494515,28.4991491 0.845749743,26.3545849 C0.236552676,24.210019 -0.0238974184,21.7940342 0.193111896,19.2242524 C0.410122874,16.6544705 1.0856902,14.1763231 2.15857103,11.922656 C3.23145352,9.66899218 4.70149982,7.64093839 6.48404034,5.95141561 C8.26658086,4.2618945 11.2143721,2.56501253 13.5105349,1.63486287 C15.8066978,0.704711531 18.3058249,0.195118614 20.863158,0.165755286 C23.4204928,0.136395296 25.7905549,0.587266562 27.8388925,1.3964235 C29.8872317,2.20557877 31.6137416,3.37398925 32.8880616,4.79185952 C34.1623832,6.20973146 34.9838281,7.87614873 35.2272378,9.68943937 C35.4706525,11.5027283 35.1276267,13.4549024 34.1374181,15.5137496 L34.1374181,15.5137496 Z" id="path4824" fill="#394655"></path>
                                <path d="M33.1261426,15.2955438 C32.2650972,17.236604 30.917959,19.1504852 29.3061431,21.0367587 C27.6943255,22.9230321 25.8237342,24.7855759 23.9269155,26.5061374 C22.0301001,28.226704 20.117051,29.7967009 18.2957581,31.0340424 C16.4744668,32.2713806 14.7373412,33.1734035 13.0410735,33.5850908 C11.3448025,33.9967765 9.83090962,33.8793549 8.45611038,33.3131547 C7.08131115,32.7469561 5.2738953,32.153173 4.23322418,30.7830207 C3.19255473,29.4128633 2.36323997,27.6900807 1.85426437,25.7141603 C1.34529044,23.7382399 1.15747393,21.5085411 1.40749291,19.1349859 C1.65751024,16.7614324 2.32360275,14.4711329 3.34994772,12.3868305 C4.3762927,10.3025282 5.76279367,8.42503237 7.43252952,6.85676765 C9.1022687,5.28850627 11.9213342,3.67577938 14.0576909,2.80288953 C16.1940492,1.92999969 18.5122202,1.44150478 20.876646,1.39137219 C23.2410717,1.34124627 25.4241555,1.73139339 27.3034266,2.44786794 C29.1826977,3.16434416 30.7578002,4.20750326 31.9170786,5.47977842 C33.0763554,6.75205525 33.8193491,8.25202303 34.0480967,9.90391048 C34.2768443,11.5557963 33.9871865,13.3544837 33.1261426,15.2955438 L33.1261426,15.2955438 Z" id="path4826" fill="#FFFFFF"></path>
                                <ellipse id="path4828-0" fill="#394455" transform="translate(9.595202, 9.582519) rotate(9.459045) translate(-9.595202, -9.582519) " cx="9.59520161" cy="9.58251902" rx="4.61039744" ry="4.62599595"></ellipse>
                                <ellipse id="circle4830-3" fill="#FFFFFF" transform="translate(8.736433, 7.180124) rotate(9.459045) translate(-8.736433, -7.180124) " cx="8.73643274" cy="7.18012441" rx="2.26740815" ry="2.27507955"></ellipse>
                            </g>
                        </g>
                        <g id="layer7" transform="translate(77.079295, 52.886366)">
                            <path d="M9.08349466,8.85510519 L7.19286817,8.87977269 L6.09098872,8.85531373 C5.73952791,8.84750831 5.42644299,9.01487492 5.19828682,9.2616095 C4.9701247,9.50835004 4.85785333,9.85005748 4.80472684,10.2229479 L4.50394596,12.3338721 L4.08615796,14.4523576 C4.01091449,14.8338965 4.11112827,15.1702325 4.29553444,15.4150216 C4.47994656,15.6598049 4.76276425,15.7992686 5.09622922,15.807226 L6.20804632,15.8337703 L8.40714667,15.7823559 C8.82892518,15.7724948 9.22072743,15.6080329 9.50805226,15.3554443 C9.79537708,15.1028497 9.96530879,14.7593607 9.99959917,14.3844743 L10.1918795,12.2823117 L10.3478236,10.1834739 C10.3755849,9.80989235 10.2092369,9.47524852 9.97559679,9.23561329 C9.74195962,8.99597806 9.42411817,8.85302871 9.08350356,8.85512604 L9.08349466,8.85510519 Z" id="rect4659" fill="#2E3436"></path>
                            <path d="M8.73831354,9.4941126 L7.19530879,9.51490719 L6.46046021,9.48467162 C6.18130938,9.47317204 5.92356888,9.61452158 5.72968824,9.81650312 C5.53581057,10.0184817 5.42260986,10.2984459 5.36990499,10.6040101 L5.0722209,12.3299158 L4.69961401,14.0603111 C4.63308789,14.3692537 4.70020784,14.6473738 4.84491686,14.8472938 C4.9897595,15.0472107 5.22096496,15.1553724 5.49780285,15.1664072 L6.25253266,15.1964968 L8,15.1585005 C8.33089964,15.1512909 8.64583729,15.0178481 8.88278207,14.8116361 C9.11972684,14.6054242 9.2714519,14.3245722 9.31015439,14.0176554 L9.52692696,12.2986584 L9.7140766,10.5817617 C9.74750594,10.2759889 9.62928444,10.0015868 9.44929632,9.80533125 C9.26931413,9.60907269 9.01682007,9.49033502 8.73831651,9.49409473 L8.73831354,9.4941126 Z" id="rect4661" fill="#FFFFFF"></path>
                            <path d="M0.134135986,7.06520398 C0.186775534,7.74190679 0.602235748,8.3541315 1.1927405,8.90538756 C1.78324228,9.45664363 2.59877672,9.94528058 3.54336401,10.3455406 C4.48795131,10.7458005 5.55343824,11.053608 6.63270784,11.218067 C7.7119804,11.3825289 8.80542458,11.4008001 9.88016033,11.2707833 C10.9548901,11.1407576 11.9173931,10.8819514 12.7529097,10.5621915 C13.5884264,10.2424316 14.2904513,9.86307048 14.8433878,9.44224829 C15.3963302,9.02142908 15.8051514,8.55528483 16.0632601,8.03501508 C16.3213717,7.51474533 16.4284531,6.9388039 16.3348189,6.31816602 C16.2411876,5.69752815 15.95125,5.09229554 15.503658,4.53623408 C15.0560629,3.9801756 14.4541004,3.47393475 13.7470012,3.05265973 C13.039905,2.63138471 12.2288777,2.29531981 11.3335689,2.07502235 C10.4382601,1.8547249 9.45772862,1.75000719 8.38495249,1.78552481 C7.31217933,1.8210484 6.24166271,1.99241602 5.22524347,2.27564837 C4.20882423,2.55887477 3.25089667,2.95585171 2.45245546,3.44069619 C1.65402019,3.92554365 0.99790677,4.48416719 0.614884204,5.1147674 C0.222547506,5.76070137 0.0892874109,6.48861904 0.134135986,7.06520398 L0.134135986,7.06520398 Z" id="ellipse4650" fill="#394655"></path>
                            <path d="M2.40531473,6.91325158 C2.4974139,7.45077965 2.81082838,7.95279306 3.29208135,8.40258765 C3.77333432,8.85238223 4.42184679,9.250813 5.15877672,9.56874371 C5.89570368,9.8866774 6.71739905,10.1217366 7.55520487,10.2452261 C8.39301366,10.3687125 9.24783848,10.380078 10.088367,10.2771419 C10.9288925,10.1742027 11.6795517,9.97035921 12.3309442,9.7097566 C12.9823367,9.449154 13.5319062,9.1322511 13.9630701,8.77865381 C14.3942369,8.42505652 14.7080552,8.03332887 14.8930552,7.60666752 C15.0780552,7.18000915 15.1348783,6.71725817 15.0384976,6.22714652 C14.942117,5.7370319 14.7002672,5.26622227 14.3433076,4.83665027 C13.986348,4.40707827 13.5150772,4.01932781 12.9599852,3.69837623 C12.4048931,3.37742167 11.7665855,3.12345069 11.0627939,2.95921519 C10.3590024,2.79497671 9.58961105,2.72039923 8.75661223,2.75501715 C7.92361639,2.78963804 7.10187055,2.92968867 6.32567399,3.15469619 C5.54947447,3.37970669 4.81995546,3.69022225 4.20385689,4.06681871 C3.58775238,4.44342112 3.08758907,4.88624148 2.76899941,5.36953679 C2.45040677,5.8528321 2.31321259,6.37572352 2.40531473,6.91325158 L2.40531473,6.91325158 Z" id="ellipse4652" fill="#E1D0CB"></path>
                            <path d="M5.38579869,3.63277498 C5.52009798,4.01796335 5.81212292,4.36003425 6.21615499,4.6487304 C6.62018705,4.93742952 7.13462292,5.17329908 7.69279394,5.35417025 C8.25096496,5.53504142 8.85053444,5.66147129 9.43725059,5.72877365 C10.0239667,5.79607302 10.5978177,5.80391717 11.1355344,5.74426531 C11.6732482,5.68459856 12.1270873,5.56330477 12.5111906,5.39440687 C12.8952969,5.22550302 13.2096229,5.00907252 13.4572892,4.75430015 C13.7049525,4.49952479 13.8862411,4.20598452 13.9914816,3.88082337 C14.0967221,3.55565925 14.1257245,3.19851079 14.0543527,2.82102058 C13.982981,2.44353037 13.8165291,2.0817225 13.5646942,1.75474406 C13.3128593,1.42776562 12.9758878,1.135849 12.5685719,0.899038021 C12.1612559,0.662224062 11.6836075,0.480640875 11.1531057,0.372798021 C10.6226069,0.264955167 10.0391835,0.230945 9.42412114,0.286113208 C8.80905879,0.341281417 8.22056413,0.480164208 7.68847387,0.682282792 C7.15638658,0.884401375 6.68065914,1.14972 6.2955285,1.457456 C5.91039489,1.765192 5.61590261,2.11553306 5.45098278,2.4861414 C5.28605998,2.85674675 5.25149941,3.24759554 5.38579869,3.6327869 L5.38579869,3.63277498 Z" id="path4648" fill="#394655"></path>
                        </g>
                        <g id="layer12" transform="translate(43.122051, 91.807200)">
                            <g id="g4533" transform="translate(7.077520, 7.187915) rotate(230.451028) translate(-7.077520, -7.187915) translate(1.077520, 3.687915)">
                                <path d="M11.2239247,2.55301046 C11.2233933,3.36414181 11.064724,3.95179398 10.7755318,4.36466641 C10.4863396,4.777537 10.0672489,5.01931809 9.56048138,5.18362063 C9.05371386,5.34792133 8.46017553,5.44080048 7.82592203,5.52246697 C7.19166985,5.60413161 6.51715553,5.66822612 5.83984741,5.72509497 C5.16253929,5.78196198 4.51862245,5.78913233 3.92655208,5.74098404 C3.33448172,5.6928339 2.7942193,5.59369128 2.33334801,5.42543491 C1.87247937,5.25717669 1.49144423,5.01741398 1.22324596,4.67100283 C0.955046356,4.32458614 0.799848345,3.87014408 0.790871825,3.28654712 C0.78189132,2.70295201 0.923493696,2.27534256 1.17949655,1.98080497 C1.43549808,1.68626738 1.80553873,1.52663202 2.25553246,1.45604549 C2.70552618,1.38546079 3.23499472,1.40381433 3.81920848,1.42645901 C4.40342223,1.44910185 5.04280365,1.46969497 5.72313671,1.40396732 C6.40346977,1.33823782 7.08770988,1.13236196 7.73713724,0.935591905 C8.38656594,0.738823689 8.99971525,0.557445011 9.52237535,0.516957382 C10.0450381,0.476466067 10.4758951,0.576535854 10.7709087,0.89408863 C11.0659223,1.21164141 11.224484,1.74187911 11.2239247,2.55301415 L11.2239247,2.55301046 Z" id="ellipse4523" fill="#E1D6B9"></path>
                                <path d="M9.68431803,0.103959607 C9.1861245,0.0989643206 8.60997726,0.203450605 7.98895274,0.341209922 C7.27921251,0.498649933 6.51340523,0.695228291 5.72924505,0.769988011 C4.94508486,0.844755104 4.21331583,0.840633531 3.54426287,0.846310832 C2.87520991,0.852006564 2.26832702,0.875932329 1.74978122,1.00471856 C1.23123675,1.13350295 0.801908813,1.36737085 0.499923381,1.73627001 C0.197939277,2.10516733 0.0236178383,2.6057006 0.0147170416,3.24329457 C0.00581624495,3.88088671 0.176553452,4.40590609 0.485392498,4.82484292 C0.794231544,5.24377974 1.24101567,5.55837589 1.78221466,5.79256452 C2.32341631,6.02675499 2.95823176,6.18314433 3.64960712,6.27138395 C4.34098248,6.35962357 5.08885398,6.37485459 5.86857971,6.31242641 C6.64830411,6.24999823 7.39253692,6.16744697 8.0745784,6.0636556 C8.75661722,5.95986239 9.37560121,5.83810273 9.89552597,5.63163703 C10.0933535,5.55307646 10.2763698,5.46045168 10.4437818,5.35154521 C10.7818886,5.13159592 10.7161396,4.21378294 10.4305502,4.51450842 C10.1659548,4.79312561 9.82480582,4.9759826 9.42485184,5.10565361 C8.93744289,5.26367978 8.36649663,5.35292214 7.75647057,5.43146796 C7.14644584,5.51001377 6.49770264,5.57154059 5.84626661,5.62623622 C5.19483059,5.68093184 4.57557028,5.68802847 4.00611856,5.64171976 C3.43666419,5.59540921 2.91696527,5.50005454 2.47369896,5.33822568 C2.03043397,5.17639498 1.66394034,4.94561457 1.40598728,4.61243447 C1.1480329,4.27925069 0.998693471,3.84240273 0.990059699,3.28109839 C0.981424597,2.7197959 1.11772901,2.30828933 1.36395294,2.02500312 C1.61017555,1.7417169 1.96590851,1.58815147 2.39871306,1.52026165 C2.83151762,1.45237183 3.3409514,1.47004335 3.9028494,1.49181985 C4.46474606,1.51360004 5.07957058,1.53343741 5.73391597,1.4702203 C6.38826136,1.40700136 7.0464859,1.20909399 7.67110662,1.01984083 C8.29572733,0.830589503 8.88531079,0.656283487 9.38800653,0.61734237 C9.4508435,0.612476113 9.51249413,0.609563732 9.57248949,0.609066046 C9.72665394,0.607775751 9.87140614,0.617213341 10.0042446,0.652628265 C10.1574352,0.69346796 10.3118441,0.125181281 9.89293278,0.11296587 C9.82494531,0.110975128 9.75548987,0.104671113 9.68431936,0.103970667 L9.68431803,0.103959607 Z" id="path4521" fill="#394655"></path>
                            </g>
                        </g>
                    </g>
                    <path d="M74.8814019,52.2959018 C74.6997189,52.2277098 74.6020925,52.1883117 74.6020925,52.1883117 C74.6020925,52.1883117 74.3215565,48.7847805 78.9339961,47.9853022 C79.9340881,47.0104524 80.9626489,46.0036748 82.0137102,44.9712371 C81.9562202,44.4214857 81.8923551,41.7283014 86.0264781,41.0138518 C86.9185543,40.1309017 87.8205891,39.2361523 88.7293799,38.332967 C88.7221194,37.8769907 88.8507027,35.6125541 92.06705,35.0085786 C92.8519901,34.2251386 93.6390126,33.4385366 94.4261313,32.6508583 C94.4404349,32.06367 94.6956343,29.9756132 97.5666332,29.5031416 C98.221488,28.8457862 98.874564,28.1896181 99.5247034,27.5358533 C99.5828715,27.1999514 100.00907,25.2917156 102.247576,24.7793115 C102.251356,24.7806275 102.255135,24.7819414 102.258912,24.7832531 C102.920892,24.1160806 103.577973,23.4533237 104.228871,22.7963311 C104.228527,22.7961402 104.228355,22.7960437 104.228355,22.7960437 C104.228355,22.7960437 104.210662,20.8625039 106.668071,20.2999918 C106.67596,20.3027383 106.683838,20.3054763 106.691706,20.3082059 C107.261936,19.7316147 107.825816,19.1611002 108.382408,18.5976485 C108.445255,18.2361003 108.805856,16.8271697 110.657957,16.2822798 C110.660211,16.2833429 110.662463,16.2844045 110.664715,16.2854648 C111.200627,15.7421327 111.727895,15.207284 112.245571,14.6819126 C112.229777,14.6731598 112.221717,14.6683139 112.221717,14.6683139 C112.221717,14.6683139 112.029071,13.4402745 114.036561,12.8632838 C121.03442,5.75348272 125.881045,0.783282279 125.881045,0.783282279 L117.553798,12.8660278 C117.568538,12.8597344 117.576198,12.8562629 117.576198,12.8562629 C117.108782,14.4044422 116.203772,14.8997138 116.203772,14.8997138 C116.181721,14.9068359 116.159731,14.9138033 116.137805,14.9206183 L114.869246,16.7612829 C114.400765,18.3038591 113.385531,18.9509727 113.385531,18.9509727 C113.374588,18.9545849 113.363657,18.9581668 113.352739,18.9617185 L112.195523,20.6408259 C111.771802,22.3881623 110.8555,22.8594862 110.597339,22.9597738 L109.301457,24.8400845 C109.371292,24.802303 109.406465,24.7793115 109.406465,24.7793115 C108.918802,26.877768 107.429313,27.5865131 107.429313,27.5865131 C107.418048,27.5930497 107.406703,27.5995218 107.395277,27.60593 L105.908373,29.7634113 C105.922018,29.7585695 105.928949,29.7559672 105.928949,29.7559672 C105.441285,31.8544237 103.84112,32.954911 103.84112,32.8049521 C103.829311,32.8081012 103.817507,32.8112359 103.805708,32.8143564 L102.249594,35.07226 C102.393368,35.0274293 102.469868,35 102.469868,35 C101.589496,37.936639 99.7906589,38.9259655 99.7906589,38.7760066 C99.7498567,38.7900691 99.7090972,38.8039231 99.6683818,38.8175709 L97.6679493,41.7201766 C97.1095589,44.4679694 94.6597802,46.3121518 94.6597802,46.1635826 C94.6369577,46.1706 94.6141178,46.1775448 94.5912612,46.1844173 L92.4508385,49.2901474 C92.4722236,49.2858006 92.4830921,49.2834253 92.4830921,49.2834253 C91.9555755,52.0738858 89.513912,53.8751992 89.513912,53.7252403 C89.462256,53.7430436 89.4103817,53.7604254 89.3582967,53.7773917 L86.7438008,57.5709966 C86.7438008,57.5709966 82.9512813,58.4224135 74.8814019,52.2959018 Z" id="Combined-Shape" stroke="#394655" fill="#FFFFFF"></path>
                    <path d="M74.6020925,52.1883117 C74.6020925,52.1883117 83.5251074,55.7892844 89.513912,53.7252403 C89.513912,53.8751992 91.9555755,52.0738858 92.4830921,49.2834253 C92.4830921,49.2834253 86.4683924,50.5979076 79.0188842,47.9709748 C74.3181262,48.7431636 74.6020925,52.1883117 74.6020925,52.1883117 Z M82.0268972,45.0695928 C82.0268972,45.0695928 88.8951288,47.9361027 94.6597802,46.1635826 C94.6597802,46.3135414 97.1556016,44.4332957 97.6831181,41.6428353 C97.6831181,41.6428353 93.9298003,43.4404178 86.1086734,41 C81.4079154,41.7721887 82.0268972,45.0695928 82.0268972,45.0695928 Z M88.7327859,38.413264 C88.7327859,38.413264 93.8018543,40.8400508 99.7906589,38.7760066 C99.7906589,38.9259655 101.589496,37.936639 102.469868,35 C102.469868,35 97.3185321,36.8470277 92.1135597,35 C88.4829474,35.6576192 88.7327859,38.413264 88.7327859,38.413264 Z M94.4280592,32.8049521 C94.4280592,32.8049521 98.652981,34.1884558 103.84112,32.8049521 C103.84112,32.954911 105.441285,31.8544237 105.928949,29.7559672 C105.928949,29.7559672 102.296302,31.1199654 97.6252472,29.4937776 C94.2144443,30.0224153 94.4280592,32.8049521 94.4280592,32.8049521 Z M99.5168463,27.5865131 C99.5168463,27.5865131 105.143508,28.9129457 107.429313,27.5865131 C107.429313,27.5865131 108.918802,26.877768 109.406465,24.7793115 C109.406465,24.7793115 106.91863,26.4054994 102.247576,24.7793115 C99.7901666,25.3418237 99.5168463,27.5865131 99.5168463,27.5865131 Z M104.228355,22.7960437 C104.228355,22.7960437 106.967036,24.3305208 110.528389,22.9831981 C110.528389,22.9831981 111.721761,22.6807281 112.209425,20.5822716 C112.209425,20.5822716 111.339125,21.9261796 106.668071,20.2999918 C104.210662,20.8625039 104.228355,22.7960437 104.228355,22.7960437 Z M108.370195,18.6832063 C108.370195,18.6832063 110.42504,19.9282178 113.385531,18.9509727 C113.385531,18.9509727 114.404183,18.3016806 114.871599,16.7535013 C114.871599,16.7535013 113.385531,17.5691422 110.657957,16.2822798 C108.525041,16.9097857 108.370195,18.6832063 108.370195,18.6832063 Z M112.221717,14.6683139 C112.221717,14.6683139 113.86361,15.6555425 116.203772,14.8997138 C116.203772,14.8997138 117.108782,14.4044422 117.576198,12.8562629 C117.576198,12.8562629 115.607026,13.7486631 114.061211,12.8562629 C112.027498,13.430246 112.221717,14.6683139 112.221717,14.6683139 Z" id="Combined-Shape-Copy-2" fill="#E5E5DA"></path>
                </g>
            </g>
        </g>
    </g>
</svg>